<?xml version="1.0" encoding="UTF-8"?>
<svg id="Layer_2" data-name="Layer 2" xmlns="http://www.w3.org/2000/svg" viewBox="0 0 652.9 160">
  <defs>
    <style>
      .cls-1 {
        fill: #000;
      }

      .cls-1, .cls-2, .cls-3 {
        stroke: #000;
        stroke-miterlimit: 10;
      }

      .cls-2 {
        fill: #af1b1b;
      }

      .cls-3 {
        fill: #050000;
      }
    </style>
  </defs>
  <g id="Layer_1-2" data-name="Layer 1">
    <path class="cls-2" d="M18.35,104.97c-2.49,0-3.59-1.22-3.59-4.02v-41.97H4.09c-2.49,0-3.59-1.22-3.59-4.01v-10.56c0-1.57.39-2.53,1.09-3.23l10.06-9.51c.55-.52,1.4-.78,2.49-.78h41.16c2.49,0,3.59,1.22,3.59,4.01v10.56c0,1.57-.39,2.53-1.09,3.23l-10.13,9.42c-.47.52-1.33.87-2.42.87h-.62v32.46c0,1.57-.39,2.53-1.09,3.23l-10.13,9.42c-.47.52-1.33.87-2.42.87h-12.63ZM43.85,91.44v-42.84h11.46c1.95,0,2.81-.96,2.81-3.14v-10.56c0-2.18-.86-3.14-2.81-3.14H14.14c-1.95,0-2.81.96-2.81,3.14v10.56c0,2.18.86,3.14,2.81,3.14h11.46v42.84c0,2.18.86,3.14,2.81,3.14h12.63c1.95,0,2.81-.96,2.81-3.14ZM34.34,40.49h-15.98v-.87h32.75v.87h-15.98v46.25h-.78v-46.25Z"/>
    <path class="cls-2" d="M77.47,104.1c-.47.52-1.32.87-2.42.87h-12.08c-2.49,0-3.59-1.22-3.59-4.02v-56.54c0-1.57.39-2.53,1.09-3.23l10.06-9.51c.55-.52,1.4-.78,2.49-.78h12.09c2.49,0,3.59,1.22,3.59,4.01v18.06h1.4v-8.55c0-1.57.39-2.53,1.09-3.23l10.06-9.51c.55-.52,1.4-.78,2.49-.78h12.08c2.49,0,3.59,1.22,3.59,4.01v56.54c0,1.57-.39,2.53-1.09,3.23l-10.13,9.42c-.47.52-1.33.87-2.42.87h-12.08c-2.49,0-3.59-1.22-3.59-4.02v-18.5h-1.4v8.99c0,1.57-.39,2.53-1.09,3.23l-10.14,9.42ZM87.92,91.44v-19.37h13.02v19.37c0,2.18.86,3.14,2.81,3.14h12.08c1.95,0,2.81-.96,2.81-3.14v-56.54c0-2.18-.86-3.14-2.81-3.14h-12.08c-1.95,0-2.81.96-2.81,3.14v18.93h-13.02v-18.93c0-2.18-.86-3.14-2.81-3.14h-12.09c-1.95,0-2.81.96-2.81,3.14v56.54c0,2.18.86,3.14,2.81,3.14h12.09c1.95,0,2.81-.96,2.81-3.14ZM78.64,39.62h.78v23.12h29.94v-23.12h.78v47.12h-.78v-23.12h-29.94v23.12h-.78v-47.12Z"/>
    <path class="cls-2" d="M123.44,104.97c-2.49,0-3.59-1.22-3.59-4.02v-56.54c0-1.57.39-2.53,1.09-3.23l10.06-9.51c.55-.52,1.4-.78,2.49-.78h36.18c2.49,0,3.59,1.22,3.59,4.01v10.21c0,1.57-.39,2.53-1.09,3.23l-6.71,6.19c1.01.61,1.48,1.74,1.48,3.58v9.33c0,1.57-.39,2.53-1.09,3.23l-6.94,6.54h10.76c2.49,0,3.59,1.22,3.59,4.01v10.21c0,1.57-.39,2.53-1.09,3.23l-10.13,9.42c-.47.52-1.33.87-2.42.87h-36.18ZM172.48,91.44v-10.21c0-2.18-.86-3.14-2.81-3.14h-21.52v-7.5h15.2c1.95,0,2.81-.96,2.81-3.14v-9.33c0-2.18-.86-3.14-2.81-3.14h-15.2v-6.72h21.52c1.95,0,2.81-.96,2.81-3.14v-10.21c0-2.18-.86-3.14-2.81-3.14h-36.18c-1.95,0-2.81.96-2.81,3.14v56.54c0,2.18.86,3.14,2.81,3.14h36.18c1.95,0,2.81-.96,2.81-3.14ZM165.46,86.73h-26.27v-47.12h26.27v.87h-25.49v21.9h19.18v.87h-19.18v22.6h25.49v.87Z"/>
    <path class="cls-2" d="M215.09,104.1c-.47.52-1.32.87-2.42.87h-11.62c-2.49,0-3.59-1.22-3.59-4.02v-56.54c0-1.57.39-2.53,1.09-3.23l10.06-9.51c.55-.52,1.4-.78,2.49-.78h12.55c1.95,0,3.12.78,4.29,3.05l5.3,10.91.7-1.4c.39-.87.86-1.57,1.4-2.09l10.06-9.42c.86-.7,1.64-1.05,2.89-1.05h12.63c2.49,0,3.59,1.22,3.59,4.01v56.54c0,1.57-.39,2.53-1.09,3.23l-10.13,9.42c-.47.52-1.33.87-2.42.87h-12.01c-2.57,0-3.59-1.22-3.59-4.02v-23.03l-4.6,4.28c-.86.78-1.87,1.22-3.35,1.22h-1.01v8.03c0,1.57-.39,2.53-1.09,3.23l-10.14,9.42ZM225.54,91.44v-30.71l4.6,9.51c.93,2.01,2.1,2.79,4.13,2.79h3.12c2.03,0,3.2-.78,4.13-2.79l4.6-9.51v30.71c0,2.18.78,3.14,2.81,3.14h12.01c1.95,0,2.81-.96,2.81-3.14v-56.54c0-2.18-.86-3.14-2.81-3.14h-12.63c-1.64,0-2.65.7-3.59,2.62l-6.94,14.22c-.55,1.05-.78,1.48-1.4,1.48h-.7c-.62,0-.86-.43-1.4-1.48l-7.02-14.22c-.94-1.92-1.95-2.62-3.59-2.62h-12.55c-1.95,0-2.81.96-2.81,3.14v56.54c0,2.18.86,3.14,2.81,3.14h11.62c1.95,0,2.81-.96,2.81-3.14ZM239.73,57.33l9.51-16.23c.62-1.13,1.4-1.48,2.26-1.48h1.33c1.48,0,2.1.78,2.1,2.7v44.41h-.78v-44.41c0-.96-.23-1.83-1.33-1.83h-1.17c-.7,0-1.17.09-1.79,1.22l-9.51,16.06c-1.87,3.14-2.34,4.1-4.6,4.1s-2.73-.96-4.6-4.1l-9.51-16.06c-.62-1.13-1.17-1.22-1.87-1.22h-1.17c-1.09,0-1.25.87-1.25,1.83v44.41h-.78v-44.41c0-1.92.62-2.7,2.03-2.7h1.33c.86,0,1.71.35,2.34,1.48l9.51,16.23c1.79,3.05,2.1,3.67,3.98,3.67s2.18-.61,3.98-3.67Z"/>
    <path class="cls-2" d="M291.49,106.28c-20.43,0-25.03-10.3-25.03-21.29v-27.14c0-5.41,1.17-10.03,4.68-13.35l10.13-9.42c3.66-3.49,9.82-5.5,20.27-5.5,20.43,0,24.95,7.77,24.95,18.76v29.75c0,5.41-1.17,9.95-4.68,13.26l-10.06,9.42c-3.66,3.49-9.9,5.5-20.27,5.5ZM325.72,48.34c0-10.64-4.68-17.89-24.17-17.89s-24.25,7.24-24.25,17.89v29.75c0,10.65,4.76,17.8,24.25,17.8s24.17-7.15,24.17-17.8v-29.75ZM301.39,87.87c-12.24,0-15.67-4.71-15.67-11.78v-25.74c0-7.07,3.43-11.78,15.67-11.78s15.83,4.71,15.83,11.78v25.74c0,7.07-3.59,11.78-15.83,11.78ZM301.39,86.99c11.62,0,15.05-4.36,15.05-10.91v-25.74c0-6.54-3.43-10.91-15.05-10.91s-14.89,4.36-14.89,10.91v25.74c0,6.54,3.28,10.91,14.89,10.91ZM295,51.48c0-2.27.94-4.01,6.55-4.01s6.55,1.74,6.55,4.01v23.47c0,2.36-.86,4.1-6.55,4.1s-6.55-1.74-6.55-4.1v-23.47ZM297.26,77.57v-16.58c0-1.13-.31-2.01-1.48-2.53v16.49c0,1.13.31,2.01,1.48,2.62Z"/>
    <path class="cls-2" d="M338.37,101.57l-7.64-21.38c-1.95-5.41-2.57-7.07-2.57-12.74v-23.03c0-1.57.39-2.53,1.09-3.23l10.06-9.51c.55-.52,1.4-.78,2.49-.78h12.4c2.49,0,3.82,1.31,3.82,4.01v24.08c0,1.13.23,2.09.55,3.32l.23.61v-18.5c0-1.57.39-2.53,1.09-3.23l10.06-9.51c.55-.52,1.4-.78,2.49-.78h12.24c2.57,0,3.58,1.22,3.58,4.01v23.03c0,5.67-.62,7.33-2.57,12.74l-7.64,21.38c-.31,1.05-.86,1.83-1.4,2.36l-10.06,9.33c-.86.87-1.87,1.22-3.28,1.22h-20.27c-2.42,0-3.74-.87-4.68-3.4ZM377.35,91.71l7.64-21.38c1.87-5.24,2.49-6.89,2.49-12.39v-23.03c0-2.18-.78-3.14-2.81-3.14h-12.24c-1.95,0-2.81.96-2.81,3.14v24c0,1.22-.23,2.27-.62,3.58l-3.67,12.3c-.31,1.13-.62,1.48-1.48,1.48h-.86c-.86,0-1.17-.35-1.48-1.48l-3.67-12.22c-.39-1.31-.62-2.36-.62-3.58v-24.08c0-2.18-1.09-3.14-3.04-3.14h-12.4c-1.95,0-2.81.96-2.81,3.14v23.03c0,5.5.62,7.16,2.49,12.39l7.64,21.38c.78,2.18,1.95,2.88,3.98,2.88h20.27c2.03,0,3.2-.7,3.98-2.88ZM348.58,39.62v18.85c0,3.05.39,5.76,1.25,8.12l5.15,13.96c1.09,3.05,1.95,5.32,4.91,5.32h6.86c2.96,0,3.82-2.27,4.91-5.32l5.15-13.96c.86-2.36,1.25-5.06,1.25-8.12v-18.85h.78v18.85c0,3.23-.31,5.93-1.25,8.46l-5.15,13.96c-1.25,3.4-2.42,5.85-5.69,5.85h-6.86c-3.27,0-4.44-2.44-5.69-5.85l-5.15-13.96c-.94-2.53-1.25-5.23-1.25-8.46v-18.85h.78Z"/>
    <path class="cls-2" d="M394,104.97c-2.5,0-3.59-1.22-3.59-4.02v-10.38c0-1.57.39-2.53,1.09-3.23l9.43-8.9v-19.46h-6.94c-2.5,0-3.59-1.22-3.59-4.01v-10.56c0-1.57.39-2.53,1.09-3.23l10.06-9.51c.55-.52,1.41-.78,2.5-.78h33.21c2.49,0,3.58,1.22,3.58,4.01v10.56c0,1.57-.39,2.53-1.09,3.23l-9.28,8.72v19.63h6.78c2.49,0,3.58,1.22,3.58,4.01v10.38c0,1.57-.39,2.53-1.09,3.23l-10.13,9.42c-.47.52-1.33.87-2.42.87h-33.21ZM437.27,94.59c1.95,0,2.8-.96,2.8-3.14v-10.38c0-2.18-.86-3.14-2.8-3.14h-7.56v-29.32h7.56c1.95,0,2.8-.96,2.8-3.14v-10.56c0-2.18-.86-3.14-2.8-3.14h-33.21c-1.95,0-2.81.96-2.81,3.14v10.56c0,2.18.86,3.14,2.81,3.14h7.71v29.32h-7.71c-1.95,0-2.81.96-2.81,3.14v10.38c0,2.18.86,3.14,2.81,3.14h33.21ZM408.26,86.73v-.87h12.09v-45.37h-12.09v-.87h24.79v.87h-11.93v45.37h11.93v.87h-24.79Z"/>
    <path class="cls-2" d="M446.66,103.73c-2.5,0-3.59-1.22-3.59-4.02v-56.54c0-1.57.39-2.53,1.09-3.23l10.06-9.51c.55-.52,1.4-.78,2.49-.78h36.17c2.5,0,3.59,1.22,3.59,4.01v10.21c0,1.57-.39,2.53-1.09,3.23l-6.71,6.19c1.02.61,1.48,1.74,1.48,3.58v9.33c0,1.57-.39,2.53-1.09,3.23l-6.94,6.54h10.76c2.5,0,3.59,1.22,3.59,4.01v10.21c0,1.57-.39,2.53-1.09,3.23l-10.13,9.42c-.47.52-1.33.87-2.42.87h-36.17ZM495.69,90.2v-10.21c0-2.18-.86-3.14-2.81-3.14h-21.52v-7.5h15.2c1.95,0,2.8-.96,2.8-3.14v-9.33c0-2.18-.86-3.14-2.8-3.14h-15.2v-6.72h21.52c1.95,0,2.81-.96,2.81-3.14v-10.21c0-2.18-.86-3.14-2.81-3.14h-36.17c-1.95,0-2.8.96-2.8,3.14v56.54c0,2.18.86,3.14,2.8,3.14h36.17c1.95,0,2.81-.96,2.81-3.14ZM488.68,85.49h-26.27v-47.12h26.27v.87h-25.49v21.9h19.18v.87h-19.18v22.6h25.49v.87Z"/>
    <path class="cls-3" d="M535.77,75.89c-2.49,0-3.58-1.22-3.58-4.02v-11.69c0-2.53.62-4.19,2.1-5.93l17.93-24.34h-15.05c-2.5,0-3.59-1.22-3.59-4.01v-10.56c0-1.57.39-2.53,1.09-3.23l10.06-9.51c.55-.52,1.4-.78,2.49-.78h35.86c2.5,0,3.59,1.22,3.59,4.01v13c0,2.62-.62,4.28-2.11,6.02l-17.07,23.12h17c2.49,0,3.58,1.22,3.58,4.01v10.38c0,1.57-.39,2.53-1.09,3.23l-10.13,9.42c-.47.52-1.33.87-2.42.87h-38.67ZM587.31,62.36v-10.38c0-2.18-.86-3.14-2.8-3.14h-18.64l18.09-24.52c1.4-1.66,1.95-3.14,1.95-5.5V5.82c0-2.18-.86-3.14-2.81-3.14h-35.86c-1.95,0-2.81.96-2.81,3.14v10.56c0,2.18.86,3.14,2.81,3.14h16.69l-18.94,25.74c-1.41,1.66-1.95,3.14-1.95,5.41v11.69c0,2.18.86,3.14,2.81,3.14h38.67c1.95,0,2.8-.96,2.8-3.14ZM553.47,50.85c-.78,1.05-1.09,1.57-1.09,2.71v1.22c0,1.66.78,2.01,1.64,2.01h26.27v.87h-26.27c-1.72,0-2.42-.87-2.42-2.88v-1.4c0-1.31.55-2.18,1.32-3.23l22.85-32.81c.78-1.05,1.09-1.57,1.09-2.71v-1.22c0-1.66-.78-2.01-1.64-2.01h-23.78v-.87h23.78c1.72,0,2.42.87,2.42,2.88v1.4c0,1.31-.55,2.18-1.33,3.23l-22.84,32.81Z"/>
    <path class="cls-1" d="M617.4,77.2c-20.43,0-25.02-10.3-25.02-21.29v-27.14c0-5.41,1.17-10.03,4.68-13.35l10.14-9.42c3.66-3.49,9.82-5.5,20.27-5.5,20.43,0,24.95,7.77,24.95,18.76v29.75c0,5.41-1.17,9.95-4.68,13.26l-10.06,9.42c-3.67,3.49-9.9,5.5-20.27,5.5ZM651.62,19.26c0-10.64-4.68-17.89-24.17-17.89s-24.25,7.24-24.25,17.89v29.75c0,10.65,4.75,17.8,24.25,17.8s24.17-7.15,24.17-17.8v-29.75ZM627.3,58.79c-12.24,0-15.67-4.71-15.67-11.78v-25.74c0-7.07,3.43-11.78,15.67-11.78s15.83,4.71,15.83,11.78v25.74c0,7.07-3.59,11.78-15.83,11.78ZM627.3,57.91c11.62,0,15.05-4.36,15.05-10.91v-25.74c0-6.54-3.43-10.91-15.05-10.91s-14.89,4.36-14.89,10.91v25.74c0,6.54,3.28,10.91,14.89,10.91ZM620.9,22.4c0-2.27.94-4.01,6.55-4.01s6.55,1.74,6.55,4.01v23.47c0,2.36-.86,4.1-6.55,4.1s-6.55-1.74-6.55-4.1v-23.47ZM623.17,48.49v-16.58c0-1.13-.31-2.01-1.48-2.53v16.49c0,1.13.31,2.01,1.48,2.62Z"/>
    <path class="cls-1" d="M546.25,158.63c-.47.52-1.33.87-2.42.87h-11.69c-2.5,0-3.59-1.22-3.59-4.02v-56.54c0-1.57.39-2.53,1.09-3.23l10.06-9.51c.55-.52,1.4-.78,2.49-.78h8.11c2.26,0,3.66.7,5.22,2.62l5.38,6.98,9.43-8.81c.55-.52,1.4-.78,2.49-.78h11.7c2.5,0,3.59,1.22,3.59,4.01v56.54c0,1.57-.39,2.53-1.09,3.23l-10.14,9.42c-.47.52-1.32.87-2.41.87h-11.7c-2.5,0-3.59-1.22-3.59-4.02v-10.38l-1.72-2.36v3.23c0,1.57-.39,2.53-1.09,3.23l-10.13,9.42ZM556.7,145.97v-28.79l13.33,18.06v10.73c0,2.18.86,3.14,2.8,3.14h11.7c1.95,0,2.81-.96,2.81-3.14v-56.54c0-2.18-.86-3.14-2.81-3.14h-11.7c-1.95,0-2.8.96-2.8,3.14v18.58l-15.13-19.37c-1.32-1.74-2.57-2.36-4.6-2.36h-8.11c-1.95,0-2.81.96-2.81,3.14v56.54c0,2.18.86,3.14,2.81,3.14h11.7c1.95,0,2.81-.96,2.81-3.14ZM578.37,130.97v-36.82h.78v47.12h-.78v-8.99l-29.47-37c-.16-.18-.23-.26-.39-.26s-.16.17-.16.26v45.98h-.78v-46.16c0-.7.47-1.05.94-1.05s.62.18,1.17.79l28.69,36.12Z"/>
    <path class="cls-1" d="M598.63,159.5c-2.5,0-3.59-1.22-3.59-4.02v-56.54c0-1.57.39-2.53,1.09-3.23l10.06-9.51c.55-.52,1.4-.78,2.49-.78h36.17c2.5,0,3.59,1.22,3.59,4.01v10.21c0,1.57-.39,2.53-1.09,3.23l-6.71,6.19c1.02.61,1.48,1.74,1.48,3.58v9.33c0,1.57-.39,2.53-1.09,3.23l-6.94,6.54h10.76c2.5,0,3.59,1.22,3.59,4.01v10.21c0,1.57-.39,2.53-1.09,3.23l-10.13,9.42c-.47.52-1.33.87-2.42.87h-36.17ZM647.67,145.97v-10.21c0-2.18-.86-3.14-2.81-3.14h-21.52v-7.5h15.2c1.95,0,2.8-.96,2.8-3.14v-9.33c0-2.18-.86-3.14-2.8-3.14h-15.2v-6.72h21.52c1.95,0,2.81-.96,2.81-3.14v-10.21c0-2.18-.86-3.14-2.81-3.14h-36.17c-1.95,0-2.81.96-2.81,3.14v56.54c0,2.18.86,3.14,2.81,3.14h36.17c1.95,0,2.81-.96,2.81-3.14ZM640.65,141.26h-26.27v-47.12h26.27v.87h-25.49v21.9h19.18v.87h-19.18v22.6h25.49v.87Z"/>
  </g>
</svg>